<svg xmlns="http://www.w3.org/2000/svg" width="27.882" height="27.882" viewBox="0 0 27.882 27.882">
  <path id="Path_1175" data-name="Path 1175" d="M1540.02,614.086a.932.932,0,0,1,.727-1.03.778.778,0,0,1,.174-.018c1.055,0,2.11,0,3.166,0a.932.932,0,0,1,.244,1.828,1.737,1.737,0,0,1-.434.038c-.462,0-.923,0-1.385,0v0c-.528,0-1.056.007-1.583,0A.91.91,0,0,1,1540.02,614.086Zm6.012,4.012c-.851-.014-1.7,0-2.552,0v0c-.865,0-1.731-.009-2.6,0a.894.894,0,0,0-.865.947.905.905,0,0,0,.886.91q2.575.009,5.149,0a.856.856,0,0,0,.748-.432A.924.924,0,0,0,1546.031,618.1Zm11.173-1.6a13.941,13.941,0,1,1-13.941-13.941A13.941,13.941,0,0,1,1557.2,616.5Zm-6.717,2.782a23.574,23.574,0,0,0-.1-2.565,1.84,1.84,0,0,0-1.633-1.709,4.62,4.62,0,0,0-.763-.084c-.189-.007-.231-.086-.229-.257.008-.521,0-1.041,0-1.562a3.72,3.72,0,0,0-.026-.548,3.35,3.35,0,0,0-1.177-2.052,3.819,3.819,0,0,0-2.659-1.026c-1.136.026-2.273,0-3.41.01a4.046,4.046,0,0,0-4.029,4.042c-.03,1.98-.008,3.96,0,5.94a3.732,3.732,0,0,0,.057.633,4.022,4.022,0,0,0,4.051,3.415c.968.005,1.936,0,2.9,0h0c.9,0,1.8,0,2.706,0a7.537,7.537,0,0,0,.766-.044,3.932,3.932,0,0,0,3.4-3A5.254,5.254,0,0,0,1550.488,619.278Z" transform="translate(-1529.323 -602.555)" fill="#ff8001" fill-rule="evenodd"/>
</svg>
