<svg xmlns="http://www.w3.org/2000/svg" width="69" height="69" viewBox="0 0 69 69">
  <g id="Group_2103" data-name="Group 2103" transform="translate(-1529.323 -602.555)">
    <circle id="Ellipse_69" data-name="Ellipse 69" cx="34.5" cy="34.5" r="34.5" transform="translate(1529.323 602.555)" fill="#ff8001"/>
    <path id="Path_1174" data-name="Path 1174" d="M1581.2,670.75c-2.392,0-4.784.011-7.175,0a9.936,9.936,0,0,1-10.009-8.438,9.177,9.177,0,0,1-.14-1.564c-.01-4.892-.063-9.786.01-14.677a10,10,0,0,1,9.953-9.987c2.809-.014,5.618.041,8.425-.023a9.434,9.434,0,0,1,6.569,2.534,8.275,8.275,0,0,1,2.909,5.07,9.119,9.119,0,0,1,.065,1.353c.008,1.287.016,2.573,0,3.86-.007.422.1.62.565.636a11.382,11.382,0,0,1,1.884.208,4.546,4.546,0,0,1,4.034,4.223,58.178,58.178,0,0,1,.238,6.338,13.006,13.006,0,0,1-.34,2.95,9.716,9.716,0,0,1-8.406,7.41,18.617,18.617,0,0,1-1.892.108c-2.229.013-4.458.005-6.686.005Zm.007-13.394v.006c-2.139,0-4.277-.022-6.415.008a2.209,2.209,0,0,0-2.137,2.34,2.238,2.238,0,0,0,2.189,2.248q6.361.023,12.723,0a2.114,2.114,0,0,0,1.847-1.066,2.282,2.282,0,0,0-1.9-3.528C1585.408,657.328,1583.306,657.355,1581.2,657.355Zm-2.391-7.886v.007c1.14,0,2.281.007,3.422,0a4.293,4.293,0,0,0,1.073-.093,2.3,2.3,0,0,0-.6-4.515c-2.608-.012-5.215,0-7.822,0a1.923,1.923,0,0,0-.43.044,2.3,2.3,0,0,0-1.8,2.544,2.249,2.249,0,0,0,2.246,2.014C1576.2,649.486,1577.509,649.469,1578.813,649.469Z" transform="translate(-16.906 -16.406)" fill="#fff"/>
  </g>
</svg>
