<svg id="Group_1441" data-name="Group 1441" xmlns="http://www.w3.org/2000/svg" width="68.887" height="68.887" viewBox="0 0 68.887 68.887">
  <path id="Path_550" data-name="Path 550" d="M153.057,242.389a34.444,34.444,0,1,0-39.826,34.025V252.346h-8.746v-9.956h8.746V234.8c0-8.632,5.142-13.4,13.01-13.4a52.985,52.985,0,0,1,7.71.673v8.477h-4.343c-4.279,0-5.613,2.655-5.613,5.379v6.461h9.553l-1.527,9.956H124v24.069A34.452,34.452,0,0,0,153.057,242.389Z" transform="translate(-84.17 -207.946)" fill="#4676ed"/>
  <path id="Path_551" data-name="Path 551" d="M151.519,265.259l1.527-9.956h-9.553v-6.461c0-2.724,1.334-5.379,5.613-5.379h4.343v-8.477a52.986,52.986,0,0,0-7.71-.673c-7.868,0-13.01,4.769-13.01,13.4V255.3h-8.746v9.956h8.746v24.069a34.821,34.821,0,0,0,10.764,0V265.259Z" transform="translate(-103.668 -220.859)" fill="#fff"/>
</svg>
