<svg xmlns="http://www.w3.org/2000/svg" width="27.882" height="27.881" viewBox="0 0 27.882 27.881">
  <path id="Path_1168" data-name="Path 1168" d="M1322.894,539.964a13.941,13.941,0,1,0,13.941,13.941A13.941,13.941,0,0,0,1322.894,539.964Zm8.725,17.56a6.446,6.446,0,0,1-.408,2.131,4.49,4.49,0,0,1-2.567,2.567,6.441,6.441,0,0,1-2.131.408c-.936.043-1.235.053-3.619.053s-2.683-.01-3.619-.053a6.442,6.442,0,0,1-2.131-.408,4.49,4.49,0,0,1-2.567-2.567,6.449,6.449,0,0,1-.408-2.131c-.043-.936-.053-1.235-.053-3.619s.01-2.683.053-3.619a6.45,6.45,0,0,1,.408-2.131,4.489,4.489,0,0,1,2.567-2.567,6.445,6.445,0,0,1,2.131-.408c.936-.043,1.235-.053,3.619-.053s2.683.01,3.619.053a6.444,6.444,0,0,1,2.131.408,4.489,4.489,0,0,1,2.567,2.567,6.447,6.447,0,0,1,.408,2.131c.043.936.053,1.235.053,3.619S1331.662,556.588,1331.619,557.524Zm-5.8-3.619a2.926,2.926,0,1,1-2.926-2.926A2.926,2.926,0,0,1,1325.82,553.9Zm4.219-3.547a4.852,4.852,0,0,0-.3-1.63,2.9,2.9,0,0,0-1.666-1.666,4.855,4.855,0,0,0-1.63-.3c-.925-.042-1.2-.051-3.547-.051s-2.621.009-3.547.051a4.856,4.856,0,0,0-1.63.3,2.907,2.907,0,0,0-1.666,1.666,4.858,4.858,0,0,0-.3,1.63c-.042.926-.051,1.2-.051,3.547s.009,2.621.051,3.547a4.857,4.857,0,0,0,.3,1.63,2.907,2.907,0,0,0,1.666,1.666,4.857,4.857,0,0,0,1.63.3c.925.042,1.2.051,3.547.051s2.621-.009,3.547-.051a4.856,4.856,0,0,0,1.63-.3,2.9,2.9,0,0,0,1.666-1.666,4.851,4.851,0,0,0,.3-1.63c.042-.926.051-1.2.051-3.547S1330.081,551.284,1330.039,550.358Zm-7.145,8.054a4.507,4.507,0,1,1,4.507-4.507A4.507,4.507,0,0,1,1322.894,558.412Zm4.685-8.139a1.053,1.053,0,1,1,1.053-1.054A1.054,1.054,0,0,1,1327.579,550.273Z" transform="translate(-1308.953 -539.964)" fill="#df3073"/>
</svg>
