<svg xmlns="http://www.w3.org/2000/svg" width="69" height="69" viewBox="0 0 69 69">
  <g id="Group_1440" data-name="Group 1440" transform="translate(0.062 0.113)">
    <circle id="Ellipse_45" data-name="Ellipse 45" cx="34.5" cy="34.5" r="34.5" transform="translate(-0.062 -0.113)" fill="#68b82b"/>
    <g id="Group_1439" data-name="Group 1439" transform="translate(10.859 13.614)">
      <g id="FULL_COLOR_ICON" data-name="FULL COLOR ICON">
        <g id="TYPE_A" data-name="TYPE A">
          <g id="Group_1438" data-name="Group 1438">
            <path id="Path_545" data-name="Path 545" d="M1371.581,669.45c0-10.5-10.53-19.049-23.473-19.049s-23.472,8.545-23.472,19.049c0,9.416,8.351,17.3,19.63,18.793.764.165,1.8.5,2.068,1.157a4.827,4.827,0,0,1,.076,2.123s-.276,1.656-.335,2.009c-.1.594-.471,2.321,2.033,1.266s13.518-7.96,18.443-13.628h0c3.4-3.731,5.031-7.516,5.031-11.719" transform="translate(-1324.636 -650.401)" fill="#fff"/>
            <g id="Group_1437" data-name="Group 1437" transform="translate(7.7 13.973)">
              <path id="Path_546" data-name="Path 546" d="M1359.27,677.784h-1.647a.457.457,0,0,0-.457.456v10.228a.457.457,0,0,0,.457.456h1.647a.457.457,0,0,0,.457-.456V678.24a.457.457,0,0,0-.457-.456" transform="translate(-1348.267 -677.784)" fill="#68b82b"/>
              <path id="Path_547" data-name="Path 547" d="M1374.6,677.784h-1.646a.457.457,0,0,0-.457.456v6.076l-4.687-6.329a.5.5,0,0,0-.035-.046l0,0-.028-.028-.009-.008a.225.225,0,0,0-.024-.02l-.012-.009-.023-.016-.014-.008-.025-.014-.014-.007-.026-.011-.015-.005-.027-.009-.016,0-.027-.006-.019,0-.024,0-.023,0h-1.662a.457.457,0,0,0-.457.456v10.228a.457.457,0,0,0,.457.456h1.646a.457.457,0,0,0,.457-.456v-6.074l4.693,6.338a.448.448,0,0,0,.116.113l0,0,.029.017.013.007.022.011.022.01.013.005.031.01.007,0a.441.441,0,0,0,.117.016h1.646a.457.457,0,0,0,.457-.456V678.24a.457.457,0,0,0-.457-.456" transform="translate(-1352.261 -677.784)" fill="#68b82b"/>
              <path id="Path_548" data-name="Path 548" d="M1346.761,686.363h-4.474v-8.122a.457.457,0,0,0-.457-.457h-1.647a.457.457,0,0,0-.457.457v10.226h0a.454.454,0,0,0,.128.315l.007.007.007.006a.453.453,0,0,0,.316.128h6.578a.457.457,0,0,0,.456-.457V686.82a.457.457,0,0,0-.456-.457" transform="translate(-1339.726 -677.784)" fill="#68b82b"/>
              <path id="Path_549" data-name="Path 549" d="M1394.566,680.345a.457.457,0,0,0,.456-.457v-1.647a.457.457,0,0,0-.456-.457h-6.578a.455.455,0,0,0-.318.129l-.005.005-.008.008a.454.454,0,0,0-.127.315h0v10.226h0a.454.454,0,0,0,.128.315l.007.007.007.006a.454.454,0,0,0,.316.128h6.578a.457.457,0,0,0,.456-.457V686.82a.457.457,0,0,0-.456-.457h-4.474v-1.729h4.474a.457.457,0,0,0,.456-.457v-1.646a.457.457,0,0,0-.456-.458h-4.474v-1.728Z" transform="translate(-1363.137 -677.784)" fill="#68b82b"/>
            </g>
          </g>
        </g>
      </g>
    </g>
  </g>
</svg>
