<svg xmlns="http://www.w3.org/2000/svg" width="40.078" height="40.078" viewBox="0 0 40.078 40.078">
  <g id="Group_2329" data-name="Group 2329" transform="translate(-672.533 -1109.537)">
    <rect id="Rectangle_1749" data-name="Rectangle 1749" width="40.078" height="40.078" rx="5" transform="translate(672.533 1109.537)" fill="#68b82b"/>
    <g id="Group_2318" data-name="Group 2318" transform="translate(678.916 1116.564)">
      <g id="FULL_COLOR_ICON" data-name="FULL COLOR ICON">
        <g id="TYPE_A" data-name="TYPE A">
          <g id="Group_2317" data-name="Group 2317">
            <path id="Path_1270" data-name="Path 1270" d="M1938.476,240.4c0-6.111-6.126-11.082-13.656-11.082s-13.656,4.971-13.656,11.082c0,5.478,4.858,10.066,11.421,10.934.445.1,1.05.293,1.2.674a2.806,2.806,0,0,1,.044,1.235s-.16.964-.195,1.169c-.06.345-.274,1.35,1.183.736s7.865-4.631,10.73-7.929h0a9.858,9.858,0,0,0,2.927-6.818" transform="translate(-1911.163 -229.314)" fill="#fff"/>
            <g id="Group_2316" data-name="Group 2316" transform="translate(4.48 8.129)">
              <path id="Path_1271" data-name="Path 1271" d="M1944.918,256.7h-.958a.266.266,0,0,0-.266.266v5.95a.266.266,0,0,0,.266.265h.958a.266.266,0,0,0,.266-.265v-5.95a.266.266,0,0,0-.266-.266" transform="translate(-1938.517 -256.697)" fill="#68b82b"/>
              <path id="Path_1272" data-name="Path 1272" d="M1957.246,256.7h-.958a.266.266,0,0,0-.266.266V260.5l-2.727-3.682a.254.254,0,0,0-.021-.027l0,0-.016-.016,0,0-.014-.012-.007-.005-.014-.009-.008,0-.014-.008-.009,0-.015-.006-.009,0-.016-.005-.01,0-.015,0h-.011l-.014,0h-.981a.266.266,0,0,0-.266.266v5.95a.266.266,0,0,0,.266.265h.958a.266.266,0,0,0,.266-.265v-3.534l2.73,3.687a.266.266,0,0,0,.068.066l0,0,.016.01.008,0,.013.006.013.005.008,0,.018.006h0a.258.258,0,0,0,.068.009h.958a.266.266,0,0,0,.266-.265v-5.95a.266.266,0,0,0-.266-.266" transform="translate(-1944.251 -256.697)" fill="#68b82b"/>
              <path id="Path_1273" data-name="Path 1273" d="M1930.347,261.688h-2.6v-4.726a.266.266,0,0,0-.266-.266h-.958a.266.266,0,0,0-.266.266v5.95h0a.263.263,0,0,0,.074.183l0,0,0,0a.266.266,0,0,0,.184.074h3.827a.266.266,0,0,0,.266-.266v-.958a.266.266,0,0,0-.266-.266" transform="translate(-1926.254 -256.697)" fill="#68b82b"/>
              <path id="Path_1274" data-name="Path 1274" d="M1978.151,258.187a.266.266,0,0,0,.266-.266v-.958a.266.266,0,0,0-.266-.266h-3.827a.263.263,0,0,0-.184.075l0,0,0,0a.265.265,0,0,0-.074.183h0v5.949h0a.264.264,0,0,0,.074.184l0,0,0,0a.264.264,0,0,0,.184.074h3.827a.266.266,0,0,0,.266-.266v-.958a.266.266,0,0,0-.266-.266h-2.6v-1.006h2.6a.266.266,0,0,0,.266-.266v-.958a.266.266,0,0,0-.266-.266h-2.6v-1.006Z" transform="translate(-1959.867 -256.697)" fill="#68b82b"/>
            </g>
          </g>
        </g>
      </g>
    </g>
  </g>
</svg>
