<svg id="Group_2711" data-name="Group 2711" xmlns="http://www.w3.org/2000/svg" width="27.882" height="27.881" viewBox="0 0 27.882 27.881">
  <path id="Path_922" data-name="Path 922" d="M1337.767,587.613a13.941,13.941,0,1,0,13.941,13.941A13.941,13.941,0,0,0,1337.767,587.613Zm7.419,17.963a30.678,30.678,0,0,1-7.465,5.516c-1.014.427-.864-.272-.823-.512.024-.143.135-.813.135-.813a1.953,1.953,0,0,0-.031-.859c-.107-.265-.528-.4-.837-.469-4.566-.6-7.945-3.8-7.945-7.606,0-4.251,4.262-7.71,9.5-7.71s9.5,3.459,9.5,7.71a6.858,6.858,0,0,1-2.037,4.743Z" transform="translate(-1323.826 -587.613)" fill="#68b82b" fill-rule="evenodd"/>
  <path id="Path_923" data-name="Path 923" d="M1378.489,641.675h-.667a.185.185,0,0,0-.185.185V646a.185.185,0,0,0,.185.185h.667a.185.185,0,0,0,.185-.185v-4.14a.185.185,0,0,0-.185-.185" transform="translate(-1366.522 -630.509)" fill="#68b82b"/>
  <path id="Path_924" data-name="Path 924" d="M1389.547,641.675h-.666a.185.185,0,0,0-.185.185v2.459l-1.9-2.562-.015-.019h0l-.011-.012,0,0-.01-.008,0,0-.009-.007-.006,0-.01-.006-.006,0-.011,0-.006,0-.011,0-.006,0-.011,0h-.7a.185.185,0,0,0-.185.185V646a.185.185,0,0,0,.185.185h.666a.185.185,0,0,0,.185-.185v-2.459l1.9,2.565a.181.181,0,0,0,.047.045l0,0,.011.007.005,0,.009,0,.009,0,.006,0,.013,0h0a.188.188,0,0,0,.047.006h.666a.185.185,0,0,0,.185-.185v-4.14a.185.185,0,0,0-.185-.185" transform="translate(-1372.994 -630.509)" fill="#68b82b"/>
  <path id="Path_925" data-name="Path 925" d="M1363.044,645.147h-1.811V641.86a.185.185,0,0,0-.185-.185h-.667a.185.185,0,0,0-.185.185V646h0a.184.184,0,0,0,.052.128l0,0,0,0a.184.184,0,0,0,.128.051h2.662a.185.185,0,0,0,.185-.185v-.666a.185.185,0,0,0-.185-.185" transform="translate(-1352.685 -630.509)" fill="#68b82b"/>
  <path id="Path_926" data-name="Path 926" d="M1410.849,642.711a.185.185,0,0,0,.185-.185v-.666a.185.185,0,0,0-.185-.185h-2.662a.185.185,0,0,0-.128.052l0,0,0,0a.185.185,0,0,0-.051.127h0V646h0a.185.185,0,0,0,.052.128l0,0,0,0a.183.183,0,0,0,.128.052h2.662a.185.185,0,0,0,.185-.185v-.667a.185.185,0,0,0-.185-.185h-1.81v-.7h1.81a.185.185,0,0,0,.185-.185V643.6a.185.185,0,0,0-.185-.185h-1.81v-.7Z" transform="translate(-1390.617 -630.509)" fill="#68b82b"/>
</svg>
