<svg id="Group_1462" data-name="Group 1462" xmlns="http://www.w3.org/2000/svg" width="23.178" height="24.154" viewBox="0 0 23.178 24.154">
  <path id="Path_559" data-name="Path 559" d="M202.115,271.548A4.528,4.528,0,0,1,198.739,264h-.715a8.294,8.294,0,0,1-6.914,0h-.661a6.038,6.038,0,0,0-5.654,3.918h0a12.488,12.488,0,0,0-.8,4.385h0a1.51,1.51,0,0,0,1.51,1.51h18.115a1.51,1.51,0,0,0,1.51-1.51h0a12.461,12.461,0,0,0-.131-1.8A4.51,4.51,0,0,1,202.115,271.548Z" transform="translate(-184 -249.659)" fill="#404142"/>
  <ellipse id="Ellipse_51" data-name="Ellipse 51" cx="6.793" cy="6.793" rx="6.793" ry="6.793" transform="translate(3.774 0)" fill="#404142"/>
  <path id="Path_560" data-name="Path 560" d="M342.343,262.739l2.8,2.8,5.44-5.44-1.068-1.067-4.372,4.373-1.731-1.731Z" transform="translate(-327.403 -245.157)" fill="#404142"/>
</svg>
