<svg xmlns="http://www.w3.org/2000/svg" width="320" height="181.87" viewBox="0 0 320 181.87">
  <g id="Group_1501" data-name="Group 1501" transform="translate(-170.001 -34)">
    <path id="Path_521" data-name="Path 521" d="M408.558,101.281c-3.149.383-4.372-1.1-7.222-1.007,1.931-2.655,5.563-3.648,7.737-6.069C410.2,95.851,409.67,100.162,408.558,101.281Z" transform="translate(-63.569 -36.924)" fill="#c9272a" fill-rule="evenodd"/>
    <g id="Group_1172" data-name="Group 1172" transform="translate(287.538 34)">
      <path id="Path_522" data-name="Path 522" d="M340.836,88.288c1.778-.367,4.308-2.235,6.193-3.536,4.591-3.171,6.2-6.172,5.668-13.664C351.561,55.03,336.5,40.2,318.143,40.746c-24.622.707-40.2,27.5-27.856,49.564,10.7-5.266,19.559,1.479,29.92,3.043,5.491.832,12.622,1.26,18.574,0,1.95-.42,3.658-1.983,5.678-3.043,1.77-.928,5.312-1.307,4.639-3.53-8.47,8.118-25.869,3.974-37.15,2.013-4.358-.748-10.227-.96-11.343-4.55C313.437,83.119,326.534,91.272,340.836,88.288Zm-29.91-13.664c-.7-1.613.673-6.2-.521-8.587C313.219,67.126,312.954,72.881,310.926,74.625Zm26.812,4.567c-1.224,1.431-2.813-4.752,0-4.567C337.524,75.652,336.459,78.382,337.738,79.192Zm-49.518-8.6c3.446-3.619,12.813-10.074,19.61-11.126a27.436,27.436,0,0,1,24.757,8.084c5.152-1.185,8.525-4.115,12.892-6.064.138,3.843.117,7.526-1.548,9.6,1.548,1.519,3.985,2.172,6.2,3.036a13.843,13.843,0,0,1-9.809,7.085c2.268-1.993,5.542-2.994,6.708-6.069-7.9-5.131-21.156-2.751-24.244,5.059-3.315-.881-7.18-3.432-9.276-2.542V75.141a23.878,23.878,0,0,1,7.212,3.035c3.668-2.3,5.4-6.508,10.835-7.087-6.84-12.121-29.629-8.991-38.7-1.007,3.107,4.044,9.04,5.309,13.939,7.578C300.185,77.74,292.216,74.77,288.22,70.591Zm53.648,6.059v1.009C339.361,78.176,340.917,74.979,341.867,76.65Zm-36.632-7.593V71.6c-1.522.613-1.74.148-3.081-.508a3.2,3.2,0,0,1,.511-2.53C304.129,68.137,303.993,69.268,305.236,69.056Z" transform="translate(-285.965 -40.732)" fill="#c9272a" fill-rule="evenodd"/>
      <path id="Path_523" data-name="Path 523" d="M353.4,160.64c1.842.156-.805,2.269-1.544,3.042a34.554,34.554,0,0,1-21.166,9.61c-9.169.614-17.436-2.947-23.22-7.09,9.448-4.562,19.523,8.12,27.347.508-2.692-1.782-6.441.2-9.8-.508-1.945-.395-3.193-2.375-5.15-3.021-5.194-1.77-9.667-.61-16,0-.558-1.318-1.867-1.879-2.072-3.55,15.428-3.112,28.693,6.731,44.882,3.55C348.808,162.76,350.95,161.609,353.4,160.64Z" transform="translate(-294.902 -107.517)" fill="#c9272a" fill-rule="evenodd"/>
    </g>
    <path id="Path_524" data-name="Path 524" d="M65.041,188.813c-3.408,2.012-2.079,5.931-3.092,9.1-1.667,5.23-6.041,9.991-7.222,15.172-.053,2.233,3.038,1.408,3.1,3.541,11.016-.347,17.574,3.68,23.206,8.6-.363,4.072,3.086,4.393,2.066,9.1-1.839,2.984-4.815,3.475-7.214,6.076-3.341,3.642-4.105,9.273-8.248,12.138-2.428,1.671-5.057,1.064-7.229,3.531,8.611-.638,20.238-2.734,29.923-4.032,1.329-.657,1.613-1.051,1.017-2.53,3.515.943,4.951,3.926,7.231,6.061-.761,2.969-2.53,4.955-4.117,7.082-3.008-.852-4.307,2.133-6.723,3.039-3.529,1.325-9,1.615-13.927,3.038-14.789,4.277-34.531,4.079-52.1,6.576-.175-6.334-8.636-9.389-4.639-15.178,6.064,1.036,13.4-2.642,18.054-6.064-1.332-5.1.854-6.059,1.554-10.123,1.048.155,1,1.379,2.057,1.522,2.4-4.9,2.866-11.7,4.124-17.7-5.218.282-9.355,1.607-10.837,5.564-2.313-4.562-8.945-5.769-9.288-11.137-.558-9.111,13.944-10.11,22.7-7.075a259.777,259.777,0,0,0,9.8-26.818c-.735-2.975-6.827-.722-7.735-3.534-9.778-.989-15.536,1.961-21.154,5.058-2.708-1.457-5.431.805-7.221,0-3.391-3.428,1.587-4.89,4.649-6.571,4.018-2.238,9.678-6.67,12.9-6.582,1.685.719,3.85,3.045,6.181,1.519,1.224-.017-.189-1.381-1.031-1.02,6.573-3.122,16.431,0,26.316-.5,9.16-.458,18.4-2.883,24.754-2.019,4.265.562,7.959,6.6,4.131,11.122C92.953,190.585,73.8,189.549,65.041,188.813Zm-35.074-7.092a7.194,7.194,0,0,0,5.672-3.534C33.121,178.751,30.6,179.315,29.968,181.721Zm21.667,46.041a97.578,97.578,0,0,0-5.174,21.752c10.95-3.784,21.254-8.158,22.194-21.752C63.852,225.5,57.621,228.107,51.635,227.763ZM82.589,256.6c3.523-.083,7.493.265,8.756-2.025C88.412,255.226,84.965,255.374,82.589,256.6Z" transform="translate(154.005 -82.241)" fill="#1a1311" fill-rule="evenodd"/>
    <path id="Path_525" data-name="Path 525" d="M479.764,203.9c4.572.732,10.885-.878,16,0,1.963,8.432-8.615,8.236-16,9.1-2.479,2.807-1.453,9.04-2.568,13.154,6.629,1.577,12.394-1.961,20.111-1,.582,1.011-.251,2.341,2.071,2.529-.976,1.9-.976,2.138,0,4.04-6.141,1.9-13.672,2.457-21.159,3.033,1.938,2.284,5.577,2.813,8.777,4.055,6.043,2.331,10.932,5.084,17.016,8.091,4.286,2.113,9.626,2.606,9.283,8.6-11.18,3.885-20.338-5.557-29.908-8.1-.8,6.3-3.968,10.271-5.167,16.2-5.039,3.676-12.238,1.038-17.539,1.513,1.384,7.406,11.305,6.459,18.053,8.6,3.022-.763,4.867-2.66,7.74-3.538,7.221,3.389,6.009,13.151-1.539,14.66-3.129.631-8.138.29-11.883-.5-1.193-.263-1.823-1.1-3.076-1.526-3.274-1.09-6.723-1.264-9.811-2.525a82.888,82.888,0,0,1-7.735-4.049c-2.215-6.663-.351-15.548,0-22.771-7.646-.226-8.63,6.046-15.472,6.589,1.334-2.468-1.936-3.048-3.093-4.551,4.465-5.225,10.973-8.462,12.9-16.2-1.143-1.395-3.682.079-5.164,0-2.53-2.055-5.854-3.369-8.248-5.565,1.314-4.5,5.718-1.635,11.345-2.017,2.66-.172,6.027-.577,8.776-1.023,2.532-.387,5.826-.692,6.694-2.518-2.3-3.752-8.751,2.407-11.859-2.029-1.663-3.25-1.78-8.047-2.585-12.138-1.921-1.829-5.585-1.934-7.739-3.541,1.387-2.349,1.95-5.51,4.144-7.072,2.741-.01,4.228,1.222,6.681,1.512,1.289-1.1,1.174-3.594,3.1-4.052,2.711.549,4.127,2.381,5.68,4.052a49.327,49.327,0,0,0,9.808-.5c1.413-2.322,1.37-6.089,3.1-8.1,3.043-2.441,7.026.147,8.76,2.029A18.517,18.517,0,0,1,479.764,203.9Zm-19.085,9.613c.713,4.581-1.634,6.144-1.542,10.113,2.166,2.106,4.268,4.253,7.739,5.063,2.425-3.921,1.16-11.116,0-15.693C464.816,213.183,461.935,212.545,460.678,213.514Zm-1.022,23.779c-1.177,2.55-2.864,4.615-4.131,7.08,6.093-.77,11.308-2.4,18.572-2.029C471.235,238.371,465.67,235.279,459.656,237.292Zm0,14.162c.09,4.132.613,7.815,1.022,11.628,6.77-.86,8.8-1.856,10.827-6.578.773-1.762,2.87-6.093,1.045-7.074C469.166,248.983,462.51,249.7,459.656,251.454Z" transform="translate(-81.644 -94.014)" fill="#1a1311" fill-rule="evenodd"/>
    <path id="Path_526" data-name="Path 526" d="M234.348,198.827c1.112,4.645.238,11.232.525,16.692,2.183,4.26,11.212,1.83,14.963,4.55-1.415,5.043-7.539,5.445-12.384,7.088-.288,2.314.9,3.143.516,5.561,3.167,1.609,7.523,2.068,10.317,4.057,2.427,13.316-5.305,25.032-11.351,33.377.367,2.174,4.427.72,5.151,2.536.1,3.625-5.327,1.842-6.7,4.037-.033,3.695.332,7.74-1.035,10.13a3.6,3.6,0,0,0-3.084,0c-.485-2.224-1.967-3.473-1.554-6.582-2.955.341-14.565,6.8-17.534,1.514-1.057-1.89-.281-3.774,1.544-5.062,2.079-1.192,1.27.8,3.1,1.013,2.737-.395,5.181-2.38,7.744-3.532,2.348-1.072,6.517-1.122,6.7-4.555-.716-2.066-4.52-.618-6.2-.51-1.738-.317-1.257-2.813-3.084-3.031-3.019-1.145-2.72-3.808-3.62-7.588-1.667-6.994-7.522-13.914-6.706-20.739,3.511,1.4,4.265,4.633,7.745,4.55,4.085-.095,7.047-5.85,10.31-7.592.062-2.093-.9-3.17-.513-5.556-3.861.587-6.6,2.295-10.837,2.524-6.43-7.684,6.763-7.378,11.35-9.1C228.69,215.389,217.2,193.423,234.348,198.827Zm2.067,21.757c-.053-1.293-.091-2.6-1.542-2.529C235.346,218.925,234.857,220.765,236.415,220.584Zm-5.671,19.221c-1.921,1.32-3.153,3.325-5.68,4.044H219.9c.6,3.626,1.133,7.325,2.586,10.124,4.384-2.015,8.253-8.6,14.443-7.6,1.742.287,3.141,3.642,4.131,2.032,1.25-1.971,2.086-5.941,1.021-8.6C238.286,237.078,234.27,240.692,230.744,239.805Zm-3.1,22.251c3.5-1.283,4.064-5.465,5.157-9.1C229.131,254.128,225.063,257.8,227.642,262.057Zm7.74,0c1.2-1.347,5.349-6.1,3.1-7.585C237.436,256.673,234.788,259.961,235.382,262.057Z" transform="translate(43.575 -95.519)" fill="#1a1311" fill-rule="evenodd"/>
    <path id="Path_527" data-name="Path 527" d="M391.1,215.036c8.654,1.012,11.558,9.283,17.011,13.664,4.217,3.367,9.157,4.351,13.421,8.087a13.712,13.712,0,0,1-4.111,5.047c-6.871-1.415-16.951-7.68-22.2-13.644C392.911,225.561,386.771,218.128,391.1,215.036Z" transform="translate(-56.938 -105.149)" fill="#1a1311" fill-rule="evenodd"/>
    <path id="Path_528" data-name="Path 528" d="M322.691,266.871c1.683,2.731,1.191,7.581,3.611,9.613-1.89,11.311,4.264,29.618,1.543,41.473-.682,2.982-4.314,6.557-7.212,6.582-5.907.025-11.119-9.626-14.966-13.149-1.488,5.117.1,13.245-5.676,14.167-1.115-1.1-2.729-2.069-3.1-3.547-.668-2.7,1.4-4.8,2.59-8.609,3.672-11.726.577-32.511,7.221-40.96C309.969,268.278,316.937,265.514,322.691,266.871Zm-2.059,23.78c-.229-4.81.734-9.441,0-12.654-1.051-4.554-6.334-7.359-9.8-4.052-1.857,1.761-.649,4.7-1.543,7.593-.928,2.93-3.193,3.747-3.1,6.069,2.237.792,3.58,4.739,2.062,7.595,3.556-.565,3.792-4.374,8.25-4.051,3.929,2.945.8,9.549,1.03,14.679C323.4,306.182,320.9,296.555,320.632,290.651Zm0,24.273V311.39c-5.308-1.058-7.315-5.315-7.742-11.132-.115-.385-.43-.587-1.031-.5C306.543,305.649,313.083,318.556,320.632,314.924Z" transform="translate(-4.522 -134.22)" fill="#1a1311" fill-rule="evenodd"/>
    <path id="Path_529" data-name="Path 529" d="M411.124,301.277c-1.53,9.021-9.083,7.072-16,3.03-4.651-2.716-10.6-5.21-5.673-9.089C397.031,296.87,406.456,296.747,411.124,301.277Z" transform="translate(-55.813 -150.422)" fill="#1a1311" fill-rule="evenodd"/>
    <path id="Path_530" data-name="Path 530" d="M690.85,324.261c4.716.57,9.47,3.315,8.236,8.094,1.836-.091,7.074-1.9,7.232,1-.158,2.543-4.226,1.254-6.193,2.03.641,1.237,1.465,6.657,1.028,10.613,3.3.353,4.984-.852,8.257-.492.68,5.2-5.638,3.553-9.285,4.545.229.975,1.479.925,1.028,2.538,2.134-.675,3.783-1.357,6.195-.513-1.238,2.5-6.181,1.355-5.665,5.56-.2,1.882,2.475.952,2.572,2.523-.348,2.368-3.377,2.1-5.169,3.04-.871-.769-2.059-2.587-3.6-4.034.807-1.08,3.9.107,3.6-2.027-1.837-1.379-7.446,1.818-7.737-2.024,3.436.334,5.352-.837,7.737-1.526,0-1.345.209-2.878-.506-3.537-2.532.891-6.716.157-8.773,1.522.852,4.24,1.182,11.806-1.542,14.166-1.65.423-1.6-.8-2.584-1.011,1.382-3.259,1.9-11.13-.514-13.664-3.768.155-6.864-.353-7.735-3.038,5.866-1.66,17.807,1.829,20.637-4.037.818-3.655-1.122-6.811-1.027-8.1-2.875.223-6.052.142-7.739,1.523,1.244,3.112,4.9,1.593,7.214.5-2.334,2.594-5.51,6.521-10.836,4.545.091-.586-.1-.884-.514-1.006a4.784,4.784,0,0,1,1.543-4.042c-1.691-1.553-6.116-.409-5.672-4.054,2.968.272,9.415.844,13.411-.5C694.182,329.075,690.335,328.8,690.85,324.261Z" transform="translate(-219.461 -166.821)" fill="#1a1311" fill-rule="evenodd"/>
    <path id="Path_531" data-name="Path 531" d="M622.422,356.057c3.323-.63,6.625-5.651,9.294-8.606,7.053,2.793-1.071,8.211-3.1,11.134h-5.68c-1.812,7.156,12.816,3.818,19.108,5.561a5.83,5.83,0,0,1-1.548,5.065c-6.919.513-11.546-1.181-17.042-2.025-1.5,2.167.721,5.012,0,8.1-6.477.277-11.018-1.327-12.374-6.076,2.093.142,3.586.864,5.665,1.013a86.821,86.821,0,0,0,.527-17.208c-.549-6.249-3.348-13.143,3.083-13.644C625.28,342.488,620.128,350,622.422,356.057Z" transform="translate(-181.994 -175.353)" fill="#1a1311" fill-rule="evenodd"/>
    <path id="Path_532" data-name="Path 532" d="M418.95,345.646c-.986,5.45-7.7,17.192-12.388,17.192-4.891.013-7.248-7.969-2.57-12.147,1.566.327,1,2.732,2.57,3.043,5.045-1.627,8.212-5.112,11.346-8.6C418.515,345.044,418.842,345.242,418.95,345.646Z" transform="translate(-63.639 -178.593)" fill="#1a1311" fill-rule="evenodd"/>
    <path id="Path_533" data-name="Path 533" d="M599.75,371.156c.041,3.807-1.659,8.019-3.109,11.635-1.16,2.93-2.067,8.233-6.7,6.572,1.184-4.894,4.578-7.655,5.154-13.147-1.308-.776-4.565,3.077-7.224,1.013.054-.711.094-1.431-.516-1.519C590.407,373.546,595.638,369.019,599.75,371.156Z" transform="translate(-168.603 -192.983)" fill="#1a1311" fill-rule="evenodd"/>
    <path id="Path_534" data-name="Path 534" d="M728.261,418.258c-.489,5.117-11.982,5.7-12.907.508C719.852,418.791,723.408,417.9,728.261,418.258Z" transform="translate(-240.872 -219.846)" fill="#1a1311" fill-rule="evenodd"/>
    <g id="Group_1173" data-name="Group 1173" transform="translate(239.246 204.667)">
      <path id="Path_535" data-name="Path 535" d="M290.829,434.5v3.534c-1.7-.023-1.263-2.143-2.573-2.538-5.8-1.377-6.143,5.668-3.618,8.1,3.484.714,4.6-.9,6.191-2.022-1.263,6.606-12.772,3.463-9.808-4.548C282.878,433.4,287.58,434.6,290.829,434.5Z" transform="translate(-234.607 -434.016)" fill="#1a1311" fill-rule="evenodd"/>
      <path id="Path_536" data-name="Path 536" d="M384.5,435.017a6.205,6.205,0,0,1-9.286,8.1A6.205,6.205,0,0,1,384.5,435.017Zm-6.193,8.1h3.1c2.074-1.472,2.074-6.619,0-8.1C375.847,433.927,376.157,440.809,378.306,443.115Z" transform="translate(-287.52 -433.536)" fill="#1a1311" fill-rule="evenodd"/>
      <path id="Path_537" data-name="Path 537" d="M444.73,434.457c0,1.342.21,2.876-.5,3.534-1.554-1.593-2.465-3.439-5.164-2.538-5.262,1.789-.342,13.073,4.123,6.589.091-1.119-.424-1.614-1.553-1.52.11-1.59,3.819-1.173,4.651-.522-1.477.763-1.763,2.66-1.553,5.07-2.167-1.489-6.763,1.342-9.279-1.519-1.064-2.667-1.582-5.141-.521-7.072C436.864,433,441.549,434.847,444.73,434.457Z" transform="translate(-321.455 -433.972)" fill="#1a1311" fill-rule="evenodd"/>
      <path id="Path_538" data-name="Path 538" d="M543.181,434.318v3.534c-1.747-.143-1.5-2.244-3.089-2.538-8.725-1.239-3.4,13.269,1.535,7.082.555-1.885-1.275-1.443-1.026-3.031h4.127c-1.093,1.306-.815,3.936-1.547,5.566-2.172-1.7-3.066.537-6.706,0-2.253-1.581-3.654-3.146-3.616-5.566C532.912,434.038,538.616,433.626,543.181,434.318Z" transform="translate(-377.076 -433.833)" fill="#1a1311" fill-rule="evenodd"/>
      <path id="Path_539" data-name="Path 539" d="M175.045,435.035c.544-1.149,3.245-.187,4.634-.5-2.4,2.143.618,5.11.527,8.077.981-1.687,3.448-6.305,1.539-7.58.382-1.149,2.882-.2,4.131-.5-2.04,1.782.431,5.279,1.019,7.585,1.1-1.105,3.27-6.035,1.034-7.087.229-1.132,2.55-.2,3.62-.5-2.394,2.543-2.53,7.3-4.131,10.613-3.377.118-2.866-3.588-3.606-6.066-2.666.6-1.35,5.08-3.606,6.066C176.305,443.9,178.29,436.91,175.045,435.035Z" transform="translate(-175.045 -434.052)" fill="#1a1311" fill-rule="evenodd"/>
      <path id="Path_540" data-name="Path 540" d="M218.874,435.035c.706-1.149,3.592-.187,5.151-.5-2.494,1.29-2.208,8.864.522,9.6,4.332,1,4.988-7.825,2.064-9.1.389-1.149,2.895-.2,4.131-.5.143,1.155-1.5.55-1.558,1.511,3.627,11.751-12.377,11.751-8.766,0C219.743,435.86,219.612,435.153,218.874,435.035Z" transform="translate(-199.792 -434.052)" fill="#1a1311" fill-rule="evenodd"/>
      <path id="Path_541" data-name="Path 541" d="M310.63,434.54h4.64c-.6,1.07-2.2,1.205-1.539,3.534.174,1.646,4.22,1.155,5.143.5.265-1.919-.213-3.161-1.536-3.534.544-1.149,3.24-.187,4.641-.5-1.688,2.079-1.423,8.479,0,10.613-1.613-.1-3.78.341-4.641-.5,1.27-.613,1.919-1.846,1.536-4.052-.706-1.149-3.577-.193-5.143-.522.144,1.713-.7,4.395,1.539,4.054-.174,1.647-4.221,1.169-5.15.519C312.682,443.634,312.014,436.313,310.63,434.54Z" transform="translate(-251.313 -434.056)" fill="#1a1311" fill-rule="evenodd"/>
      <path id="Path_542" data-name="Path 542" d="M351.683,434.65a43.649,43.649,0,0,0,4.135,10.613h-5.162c-.8-1.786,1.754-.3,1.558-1.519.437-2.377-4.15-1.627-5.162-1.016-.749,1.914,1.416.983,1.024,2.535h-3.608c2.107-2.991,3.277-6.9,4.641-10.613Zm-3.084,6.569h2.057c-.048-1.81-.244-3.48-1.547-4.046C349.412,439.042,347.515,440.108,348.6,441.219Z" transform="translate(-270.706 -434.165)" fill="#1a1311" fill-rule="evenodd"/>
      <path id="Path_543" data-name="Path 543" d="M474.409,434.65c1.6,3.473,2.542,7.615,4.644,10.613H473.89c-.22-1.621,2.825-.817,1.031-2.535-.542-1.134-3.241-.189-4.641-.493-.727,2.042,1.122,1.595,1.016,3.028h-3.6C470.716,442.485,469.293,435.367,474.409,434.65Zm-3.112,6.569h2.594c-.165-1.688-.535-3.194-1.552-4.046C472.668,439.185,470.98,439.2,471.3,441.219Z" transform="translate(-340.286 -434.165)" fill="#1a1311" fill-rule="evenodd"/>
      <path id="Path_544" data-name="Path 544" d="M499.7,435.035c.381-1.149,2.887-.2,4.112-.5,1.387,2.69,3.226,4.931,4.651,7.585,1.077-1.745.738-6.43-.512-7.585h3.611c-2.186,1.89-.079,8-1.547,10.613-4.785-.226-4.515-5.357-7.235-7.588-1.212,1.89-.486,6.19.527,7.588H499.7C501.044,443.506,501.6,436.588,499.7,435.035Z" transform="translate(-358.353 -434.052)" fill="#1a1311" fill-rule="evenodd"/>
    </g>
  </g>
</svg>
