<svg xmlns="http://www.w3.org/2000/svg" width="40.078" height="40.078" viewBox="0 0 40.078 40.078">
  <g id="Group_2328" data-name="Group 2328" transform="translate(-718.238 -1109.537)">
    <rect id="Rectangle_1747" data-name="Rectangle 1747" width="40.078" height="40.078" rx="5" transform="translate(718.238 1109.537)" fill="#0080ff"/>
    <path id="Path_1268" data-name="Path 1268" d="M1600.167,228.831c-7.411,0-13.156,5.428-13.156,12.761a12.481,12.481,0,0,0,4.132,9.438,1.052,1.052,0,0,1,.353.75l.072,2.34a1.053,1.053,0,0,0,1.477.931l2.611-1.153a1.048,1.048,0,0,1,.7-.051,14.349,14.349,0,0,0,3.808.506c7.411,0,13.155-5.428,13.155-12.761S1607.578,228.831,1600.167,228.831Zm7.9,9.818-3.864,6.131a1.974,1.974,0,0,1-2.854.526L1598.276,243a.79.79,0,0,0-.951,0l-4.151,3.15a.625.625,0,0,1-.906-.831l3.865-6.131a1.973,1.973,0,0,1,2.853-.526l3.073,2.305a.79.79,0,0,0,.951,0l4.151-3.15A.625.625,0,0,1,1608.067,238.649Z" transform="translate(-861.891 887.589)" fill="#fff" fill-rule="evenodd"/>
  </g>
</svg>
