<svg xmlns="http://www.w3.org/2000/svg" width="40.078" height="40.078" viewBox="0 0 40.078 40.078">
  <g id="Group_2324" data-name="Group 2324" transform="translate(-902.007 -1109.537)">
    <rect id="Rectangle_1750" data-name="Rectangle 1750" width="40.078" height="40.078" rx="5" transform="translate(902.007 1109.537)" fill="#c40027"/>
    <g id="Group_2320" data-name="Group 2320" transform="translate(910.671 1118.556)">
      <path id="Path_1275" data-name="Path 1275" d="M1290.675,450.219c-1.78-.138-2.528-1.02-3.924-1.868-.767,4.026-1.705,7.885-4.483,9.9-.858-6.085,1.258-10.655,2.241-15.506-1.676-2.821.2-8.5,3.736-7.1,4.35,1.72-3.766,10.489,1.682,11.584,5.688,1.143,8.01-9.87,4.483-13.452-5.1-5.172-14.835-.118-13.638,7.286.292,1.81,2.162,2.36.747,4.857-3.262-.723-4.235-3.3-4.11-6.725.2-5.615,5.045-9.545,9.9-10.089,6.143-.687,11.908,2.256,12.7,8.034.9,6.522-2.773,13.585-9.341,13.078Zm0,0" transform="translate(-1277.4 -429.009)" fill="#fff"/>
    </g>
  </g>
</svg>
