<svg xmlns="http://www.w3.org/2000/svg" width="23.249" height="23.249" viewBox="0 0 23.249 23.249">
  <path id="ic_local_grocery_store_24px" d="M7.975,20.6A2.325,2.325,0,1,0,10.3,22.924,2.322,2.322,0,0,0,7.975,20.6ZM1,2V4.325H3.325L7.51,13.148,5.94,16a2.248,2.248,0,0,0-.291,1.116,2.332,2.332,0,0,0,2.325,2.325H21.924V17.112H8.463a.288.288,0,0,1-.291-.291l.035-.139,1.046-1.895h8.66a2.314,2.314,0,0,0,2.034-1.2l4.162-7.544a1.136,1.136,0,0,0,.139-.558,1.166,1.166,0,0,0-1.162-1.162H5.894L4.8,2H1ZM19.6,20.6a2.325,2.325,0,1,0,2.325,2.325A2.322,2.322,0,0,0,19.6,20.6Z" transform="translate(-1 -2)" fill="#404142"/>
</svg>
