<svg xmlns="http://www.w3.org/2000/svg" width="20.407" height="20.407" viewBox="0 0 20.407 20.407">
  <path id="ic_local_grocery_store_24px" d="M7.122,18.325a2.041,2.041,0,1,0,2.041,2.041A2.038,2.038,0,0,0,7.122,18.325ZM1,2V4.041H3.041l3.673,7.744-1.377,2.5a1.973,1.973,0,0,0-.255.98,2.047,2.047,0,0,0,2.041,2.041H19.366V15.264H7.551a.253.253,0,0,1-.255-.255l.031-.122.918-1.663h7.6a2.031,2.031,0,0,0,1.786-1.051l3.653-6.622a1,1,0,0,0,.122-.49,1.023,1.023,0,0,0-1.02-1.02H5.3L4.336,2H1ZM17.325,18.325a2.041,2.041,0,1,0,2.041,2.041A2.038,2.038,0,0,0,17.325,18.325Z" transform="translate(-1 -2)" fill="#fff"/>
</svg>
