<svg xmlns="http://www.w3.org/2000/svg" width="40.078" height="40.078" viewBox="0 0 40.078 40.078">
  <g id="Group_2325" data-name="Group 2325" transform="translate(-856.303 -1109.537)">
    <rect id="Rectangle_1752" data-name="Rectangle 1752" width="40.078" height="40.078" rx="5" transform="translate(856.303 1109.537)" fill="#00aff0"/>
    <g id="Group_2323" data-name="Group 2323" transform="translate(863.224 1116.458)">
      <path id="Path_1277" data-name="Path 1277" d="M1608.246,435.575a12.017,12.017,0,0,0,.15-1.9,12.169,12.169,0,0,0-14.072-12.023,7.358,7.358,0,0,0-10.123,10.125,12.459,12.459,0,0,0-.148,1.9,12.173,12.173,0,0,0,14.07,12.023,7.357,7.357,0,0,0,10.123-10.124ZM1602,439.213a5.036,5.036,0,0,1-2.26,1.736,9,9,0,0,1-3.513.626,8.375,8.375,0,0,1-4.02-.857,5.17,5.17,0,0,1-1.83-1.645,3.563,3.563,0,0,1-.709-2.014,1.344,1.344,0,0,1,.434-1,1.552,1.552,0,0,1,1.105-.413,1.376,1.376,0,0,1,.924.324,2.449,2.449,0,0,1,.632.941,5.962,5.962,0,0,0,.669,1.2,2.641,2.641,0,0,0,1,.785,3.948,3.948,0,0,0,1.706.31,4.063,4.063,0,0,0,2.36-.626,1.815,1.815,0,0,0,.895-1.543,1.546,1.546,0,0,0-.476-1.184,3.176,3.176,0,0,0-1.263-.708q-.781-.249-2.1-.525a16.341,16.341,0,0,1-2.961-.9,4.787,4.787,0,0,1-1.905-1.412,3.506,3.506,0,0,1-.708-2.233,3.649,3.649,0,0,1,.746-2.256,4.67,4.67,0,0,1,2.156-1.514,9.388,9.388,0,0,1,3.3-.527,8.772,8.772,0,0,1,2.62.349,5.743,5.743,0,0,1,1.84.931,3.972,3.972,0,0,1,1.075,1.222,2.672,2.672,0,0,1,.342,1.256,1.456,1.456,0,0,1-.435,1.028,1.43,1.43,0,0,1-1.082.455,1.309,1.309,0,0,1-.9-.277,3.6,3.6,0,0,1-.653-.881,3.933,3.933,0,0,0-1.056-1.322,3.256,3.256,0,0,0-1.974-.468,3.634,3.634,0,0,0-2.039.513,1.447,1.447,0,0,0-.763,1.211,1.161,1.161,0,0,0,.256.751,2.172,2.172,0,0,0,.72.555,5.146,5.146,0,0,0,.937.368c.318.09.848.219,1.582.393q1.381.3,2.509.663a7.841,7.841,0,0,1,1.918.886,3.723,3.723,0,0,1,1.247,1.328,3.984,3.984,0,0,1,.447,1.965,4.278,4.278,0,0,1-.773,2.507Zm0,0" transform="translate(-1583.107 -420.558)" fill="#fff"/>
    </g>
  </g>
</svg>
