<svg xmlns="http://www.w3.org/2000/svg" width="40.078" height="40.078" viewBox="0 0 40.078 40.078">
  <g id="Group_2327" data-name="Group 2327" transform="translate(-763.942 -1109.537)">
    <rect id="Rectangle_1748" data-name="Rectangle 1748" width="40.078" height="40.078" rx="5" transform="translate(763.942 1109.537)" fill="#5a99ec"/>
    <g id="Group_2314" data-name="Group 2314" transform="translate(771.013 1119.927)">
      <g id="Group_2313" data-name="Group 2313">
        <path id="Path_1269" data-name="Path 1269" d="M1752.46,261.722a15.037,15.037,0,0,0,15.14-15.14c0-.23,0-.46-.015-.688a10.829,10.829,0,0,0,2.655-2.755,10.624,10.624,0,0,1-3.056.837,5.339,5.339,0,0,0,2.34-2.944,10.664,10.664,0,0,1-3.379,1.292,5.326,5.326,0,0,0-9.068,4.853,15.106,15.106,0,0,1-10.968-5.559,5.325,5.325,0,0,0,1.647,7.1,5.284,5.284,0,0,1-2.41-.666c0,.022,0,.045,0,.068a5.324,5.324,0,0,0,4.269,5.217,5.317,5.317,0,0,1-2.4.091,5.327,5.327,0,0,0,4.971,3.7,10.677,10.677,0,0,1-6.609,2.278,10.806,10.806,0,0,1-1.269-.074,15.064,15.064,0,0,0,8.157,2.39" transform="translate(-1744.303 -240.644)" fill="#fff"/>
      </g>
    </g>
  </g>
</svg>
