<svg xmlns="http://www.w3.org/2000/svg" width="40.078" height="40.078" viewBox="0 0 40.078 40.078">
  <g id="Group_2326" data-name="Group 2326" transform="translate(-810.123 -1109.537)">
    <rect id="Rectangle_1751" data-name="Rectangle 1751" width="40.078" height="40.078" rx="5" transform="translate(810.123 1109.537)" fill="#da0000"/>
    <path id="Path_1276" data-name="Path 1276" d="M1454.431,437.548a3.347,3.347,0,0,0-2.362-2.362c-2.084-.558-10.439-.558-10.439-.558s-8.355,0-10.439.558a3.347,3.347,0,0,0-2.362,2.362,37.316,37.316,0,0,0,0,12.862,3.347,3.347,0,0,0,2.362,2.362c2.084.558,10.439.558,10.439.558s8.355,0,10.439-.558a3.347,3.347,0,0,0,2.362-2.362,37.332,37.332,0,0,0,0-12.862Zm-15.473,10.439v-8.016l6.942,4.008Z" transform="translate(-611.468 685.597)" fill="#fff"/>
  </g>
</svg>
